#!OML:ASF F:\VICON\USERDATA\INSTALL\rory3\rory3.ASF
:FULLY-SPECIFIED
:DEGREES
768
root 0.190888 18.0177 -1.27224 4.11041 -8.46957 2.18562
lowerback 1.22927 -0.893089 -4.4659
upperback 1.91722 -1.22676 1.90235
thorax 1.42113 -0.693649 4.4685
lowerneck -11.8864 -0.00474855 -11.5278
upperneck 17.6863 1.19148 5.60249
head 7.28366 0.311315 3.86309
rclavicle 2.06736e-014 -9.54166e-015
rhumerus -34.442 -4.66483 -78.584
rradius 38.8917
rwrist 17.5987
rhand -23.2907 6.83886
rfingers 7.12502
rthumb 3.16235 -23.1174
lclavicle 2.06736e-014 -9.54166e-015
lhumerus -0.466087 -29.3992 82.2122
lradius 116.431
lwrist 2.44295
lhand -26.7099 38.152
lfingers 7.12502
lthumb -0.1399 68.1317
rfemur -12.0792 6.78882 12.8481
rtibia 25.9096
rfoot -15.1941 -3.44709
rtoes 4.46347
lfemur -4.79034 -1.934 -22.9943
ltibia 14.517
lfoot -9.64375 3.62079
ltoes -12.1808
769
root 0.190587 18.0181 -1.27561 4.08648 -8.4909 2.17773
lowerback 1.29258 -0.881502 -4.47366
upperback 1.93219 -1.21386 1.90678
thorax 1.3999 -0.687129 4.47853
lowerneck -11.8961 0.0386946 -11.5921
upperneck 17.7078 1.25659 5.64624
head 7.28546 0.341747 3.89481
rclavicle 1.6201e-014 -2.46493e-014
rhumerus -34.5224 -4.38783 -78.7101
rradius 39.2944
rwrist 17.4904
rhand -23.4341 6.61691
rfingers 7.12502
rthumb 3.02388 -23.3414
lclavicle 1.6201e-014 -2.46493e-014
lhumerus -0.613193 -29.4375 82.2309
lradius 116.568
lwrist 2.75066
lhand -26.6365 38.3937
lfingers 7.12502
lthumb -0.0689622 68.3734
rfemur -12.0423 6.78361 12.8544
rtibia 25.8772
rfoot -15.1646 -3.41141
rtoes 4.76119
lfemur -4.78027 -1.92085 -22.9854
ltibia 14.5247
lfoot -9.64868 3.62893
ltoes -12.328
770
root 0.189526 18.018 -1.27917 4.07837 -8.47319 2.15388
lowerback 1.35246 -0.906441 -4.48338
upperback 1.93877 -1.25003 1.94572
thorax 1.37833 -0.705346 4.52542
lowerneck -12.0034 0.0992402 -11.6427
upperneck 17.8249 1.36869 5.61224
head 7.33279 0.386616 3.90606
rclavicle 2.93207e-014 7.15625e-015
rhumerus -34.5771 -4.07026 -78.8006
rradius 39.6945
rwrist 17.358
rhand -23.4954 6.68043
rfingers 7.12502
rthumb 2.96468 -23.2787
lclavicle 2.93207e-014 7.15625e-015
lhumerus -0.804418 -29.3556 82.3089
lradius 116.689
lwrist 2.88341
lhand -26.3976 38.6081
lfingers 7.12502
lthumb 0.161778 68.5878
rfemur -12.0108 6.84386 12.8826
rtibia 25.8563
rfoot -15.2132 -3.41475
rtoes 5.25471
lfemur -4.77176 -1.96276 -22.9521
ltibia 14.5024
lfoot -9.63054 3.66586
ltoes -12.6254
771
root 0.188926 18.0191 -1.28211 4.1152 -8.42555 2.16792
lowerback 1.34845 -0.97924 -4.5403
upperback 1.94269 -1.34801 2.01255
thorax 1.399 -0.75652 4.6268
lowerneck -12.1485 0.173965 -11.7711
upperneck 17.9359 1.52652 5.55022
head 7.381 0.44584 3.92536
rclavicle -1.93815e-014 1.59028e-014
rhumerus -34.5319 -3.72948 -78.8586
rradius 40.0678
rwrist 17.2024
rhand -23.599 7.16449
rfingers 7.12502
rthumb 2.86462 -22.796
lclavicle -1.93815e-014 1.59028e-014
lhumerus -0.937179 -29.1344 82.401
lradius 116.794
lwrist 3.18329
lhand -26.1369 38.7107
lfingers 7.12502
lthumb 0.413534 68.6901
rfemur -12.0428 6.81099 12.8681
rtibia 25.8407
rfoot -15.2105 -3.39297
rtoes 5.45732
lfemur -4.80938 -1.99078 -22.96
ltibia 14.4723
lfoot -9.61057 3.65517
ltoes -12.9209
772
root 0.18922 18.0195 -1.28469 4.13662 -8.42315 2.18655
lowerback 1.32321 -1.03345 -4.56922
upperback 1.96269 -1.41972 2.0477
thorax 1.44388 -0.794868 4.67878
lowerneck -12.2537 0.232265 -11.8833
upperneck 17.9999 1.64757 5.52337
head 7.40953 0.492637 3.94884
rclavicle 5.36719e-015 -7.15625e-015
rhumerus -34.5238 -3.37597 -78.9732
rradius 40.5828
rwrist 17.0228
rhand -23.7461 7.64049
rfingers 7.12502
rthumb 2.72256 -22.3219
lclavicle 5.36719e-015 -7.15625e-015
lhumerus -1.00074 -28.9477 82.4208
lradius 116.804
lwrist 3.53836
lhand -26.0263 38.5839
lfingers 7.12502
lthumb 0.520388 68.563
rfemur -12.0798 6.74162 12.8454
rtibia 25.8253
rfoot -15.1584 -3.37568
rtoes 5.26329
lfemur -4.83231 -2.04018 -22.9784
ltibia 14.4567
lfoot -9.59299 3.68502
ltoes -12.7599
773
root 0.189276 18.0207 -1.2869 4.17621 -8.42553 2.20509
lowerback 1.24223 -1.07914 -4.62618
upperback 2.00378 -1.47781 2.08898
thorax 1.54144 -0.828813 4.75166
lowerneck -12.3679 0.273524 -11.977
upperneck 18.0213 1.74452 5.49002
head 7.42808 0.529865 3.96401
rclavicle 3.27995e-014 -2.22639e-014
rhumerus -34.5233 -2.91782 -79.1017
rradius 41.2144
rwrist 16.7894
rhand -23.8409 7.6887
rfingers 7.12502
rthumb 2.63097 -22.2748
lclavicle 3.27995e-014 -2.22639e-014
lhumerus -1.04729 -28.7846 82.4564
lradius 116.795
lwrist 3.75263
lhand -25.8465 38.446
lfingers 7.12502
lthumb 0.694009 68.4246
rfemur -12.1291 6.7213 12.8223
rtibia 25.8207
rfoot -15.1437 -3.42465
rtoes 4.86392
lfemur -4.87547 -2.05284 -22.9968
ltibia 14.4337
lfoot -9.5748 3.66234
ltoes -12.4696
